<?xml version="1.0" encoding="UTF-8"?>
<svg width="22px" height="22px" viewBox="0 0 22 22" version="1.1" xmlns="http://www.w3.org/2000/svg" xmlns:xlink="http://www.w3.org/1999/xlink">
    <path d="M10.0284914,2.34803142 L17.30647,9.62597487 L1.37474075,9.62597487 C0.615694094,9.62597487 0,10.241666 0,11.000709 C0,11.759752 0.615694094,12.3754431 1.37474075,12.3754431 L17.30647,12.3754431 L10.0284914,19.6533865 C9.49117714,20.1906982 9.49117714,21.0611225 10.0284914,21.5974029 C10.5658057,22.1336833 11.4362342,22.1347146 11.9725172,21.5974029 L21.597765,11.9722015 C21.7297731,11.840194 21.8287792,11.6875604 21.8958146,11.525645 C21.96285,11.3606356 21.9989459,11.1863445 22,11.0110221 C22.0010086,10.8284805 21.9669752,10.6449076 21.8958146,10.4747417 C21.8287792,10.3128263 21.7297731,10.1601926 21.597765,10.0281851 L11.9725172,0.402983761 C11.4352029,-0.13432792 10.5647744,-0.13432792 10.0284914,0.402983761 C9.49220845,0.940295442 9.49117714,1.81071974 10.0284914,2.34700011 L10.0284914,2.34803142 Z"></path>
</svg>