<?xml version="1.0" encoding="UTF-8"?>
<svg width="22px" height="22px" viewBox="0 0 22 22" version="1.1" xmlns="http://www.w3.org/2000/svg" xmlns:xlink="http://www.w3.org/1999/xlink">
    <path d="M11.9716157,19.6501263 L4.69371492,12.3728651 L20.6252739,12.3728651 C21.3843125,12.3728651 22,11.7572317 22,10.9982599 C22,10.239288 21.3843125,9.62365464 20.6252739,9.62365464 L4.69371492,9.62365464 L11.9716157,2.34639348 C12.5089243,1.80913217 12.5089243,0.93878947 11.9716157,0.402559371 C11.4343072,-0.133670727 10.563888,-0.134701939 10.0276108,0.402559371 L0.40246575,10.0268584 C0.270459047,10.1588535 0.171454019,10.3104417 0.104419365,10.4723419 C-0.034806455,10.8095481 -0.034806455,11.1900653 0.104419365,11.5272715 C0.170422717,11.6871093 0.268396442,11.8356038 0.396277936,11.9655365 C0.399371843,11.9686301 0.400403145,11.9696613 0.403497053,11.972755 L10.0286421,21.597054 C10.5659506,22.1343153 11.4363698,22.1343153 11.972647,21.597054 C12.5089243,21.0597927 12.5099556,20.18945 11.972647,19.6532199 L11.9716157,19.6501263 Z"></path>
</svg>