<svg id="settings_black_24dp" xmlns="http://www.w3.org/2000/svg" width="24" height="24" viewBox="0 0 24 24">
  <rect id="Rectangle_1739" data-name="Rectangle 1739" width="24" height="24" fill="none"/>
  <path id="Path_2529" data-name="Path 2529" d="M19.5,12c0-.23-.01-.45-.03-.68l1.86-1.41a1.006,1.006,0,0,0,.26-1.3L19.72,5.38a.987.987,0,0,0-1.25-.42l-2.15.91a7.587,7.587,0,0,0-1.17-.68l-.29-2.31A1,1,0,0,0,13.87,2H10.14a1,1,0,0,0-1,.88L8.85,5.19a7.587,7.587,0,0,0-1.17.68L5.53,4.96a.987.987,0,0,0-1.25.42L2.41,8.62a1.008,1.008,0,0,0,.26,1.3l1.86,1.41c-.02.22-.03.44-.03.67s.01.45.03.68L2.67,14.09a1.006,1.006,0,0,0-.26,1.3l1.87,3.23a.987.987,0,0,0,1.25.42l2.15-.91a7.587,7.587,0,0,0,1.17.68l.29,2.31a1,1,0,0,0,.99.88h3.73a1,1,0,0,0,.99-.88l.29-2.31a7.587,7.587,0,0,0,1.17-.68l2.15.91a.987.987,0,0,0,1.25-.42l1.87-3.23a1.008,1.008,0,0,0-.26-1.3l-1.86-1.41A5.17,5.17,0,0,0,19.5,12Zm-7.46,3.5a3.5,3.5,0,1,1,3.5-3.5A3.5,3.5,0,0,1,12.04,15.5Z" fill="#106ac5"/>
</svg>
